<svg width="70" height="70" viewBox="0 0 70 70" fill="none" xmlns="http://www.w3.org/2000/svg">
<path d="M36.3479 3.32485C35.5849 4.08614 34.3508 4.08614 33.5878 3.32485C32.8248 2.56356 32.8248 1.33226 33.5878 0.570967C34.3508 -0.190322 35.5849 -0.190322 36.3479 0.570967C37.1043 1.32564 37.1043 2.56356 36.3479 3.32485ZM44.6018 8.7995C43.8388 8.03821 42.6047 8.03821 41.8417 8.7995C41.0786 9.56079 41.0786 10.7921 41.8417 11.5534C42.6047 12.3147 43.8388 12.3147 44.6018 11.5534C45.3582 10.7987 45.3582 9.56079 44.6018 8.7995ZM52.8491 17.0347C52.086 16.2734 50.8519 16.2734 50.0889 17.0347C49.3259 17.796 49.3259 19.0273 50.0889 19.7885C50.8519 20.5498 52.086 20.5498 52.8491 19.7885C53.6121 19.0273 53.6121 17.796 52.8491 17.0347ZM61.1029 25.2698C60.3399 24.5085 59.1058 24.5085 58.3428 25.2698C57.5798 26.0311 57.5798 27.2624 58.3428 28.0237C59.1058 28.785 60.3399 28.785 61.1029 28.0237C61.866 27.2624 61.866 26.0311 61.1029 25.2698ZM69.3568 33.505C68.5938 32.7437 67.3597 32.7437 66.5967 33.505C65.8337 34.2663 65.8337 35.4976 66.5967 36.2589C67.3597 37.0202 68.5938 37.0202 69.3568 36.2589C70.1198 35.4976 70.1198 34.2663 69.3568 33.505ZM28.094 8.7995C27.331 8.03821 26.0969 8.03821 25.3339 8.7995C24.5709 9.56079 24.5709 10.7921 25.3339 11.5534C26.0969 12.3147 27.331 12.3147 28.094 11.5534C28.8571 10.7987 28.8571 9.56079 28.094 8.7995ZM36.3479 17.0347C35.5849 16.2734 34.3508 16.2734 33.5878 17.0347C32.8248 17.796 32.8248 19.0273 33.5878 19.7885C34.3508 20.5498 35.5849 20.5498 36.3479 19.7885C37.1043 19.0273 37.1043 17.796 36.3479 17.0347ZM44.6018 25.2698C43.8388 24.5085 42.6047 24.5085 41.8417 25.2698C41.0786 26.0311 41.0786 27.2624 41.8417 28.0237C42.6047 28.785 43.8388 28.785 44.6018 28.0237C45.3582 27.2624 45.3582 26.0311 44.6018 25.2698ZM52.8491 33.505C52.086 32.7437 50.8519 32.7437 50.0889 33.505C49.3259 34.2663 49.3259 35.4976 50.0889 36.2589C50.8519 37.0202 52.086 37.0202 52.8491 36.2589C53.6121 35.4976 53.6121 34.2663 52.8491 33.505ZM61.1029 41.7401C60.3399 40.9788 59.1058 40.9788 58.3428 41.7401C57.5798 42.5014 57.5798 43.7327 58.3428 44.494C59.1058 45.2553 60.3399 45.2553 61.1029 44.494C61.866 43.7327 61.866 42.5014 61.1029 41.7401ZM19.8402 17.0347C19.0771 16.2734 17.843 16.2734 17.08 17.0347C16.317 17.796 16.317 19.0273 17.08 19.7885C17.843 20.5498 19.0771 20.5498 19.8402 19.7885C20.6032 19.0273 20.6032 17.796 19.8402 17.0347ZM28.094 25.2698C27.331 24.5085 26.0969 24.5085 25.3339 25.2698C24.5709 26.0311 24.5709 27.2624 25.3339 28.0237C26.0969 28.785 27.331 28.785 28.094 28.0237C28.8571 27.2624 28.8571 26.0311 28.094 25.2698ZM36.3479 33.505C35.5849 32.7437 34.3508 32.7437 33.5878 33.505C32.8248 34.2663 32.8248 35.4976 33.5878 36.2589C34.3508 37.0202 35.5849 37.0202 36.3479 36.2589C37.1043 35.4976 37.1043 34.2663 36.3479 33.505ZM44.6018 41.7401C43.8388 40.9788 42.6047 40.9788 41.8417 41.7401C41.0786 42.5014 41.0786 43.7327 41.8417 44.494C42.6047 45.2553 43.8388 45.2553 44.6018 44.494C45.3582 43.7327 45.3582 42.5014 44.6018 41.7401ZM52.8491 49.9753C52.086 49.214 50.8519 49.214 50.0889 49.9753C49.3259 50.7366 49.3259 51.9679 50.0889 52.7292C50.8519 53.4905 52.086 53.4905 52.8491 52.7292C53.6121 51.9679 53.6121 50.7366 52.8491 49.9753ZM11.5863 25.2698C10.8233 24.5085 9.58916 24.5085 8.82615 25.2698C8.06313 26.0311 8.06313 27.2624 8.82615 28.0237C9.58916 28.785 10.8233 28.785 11.5863 28.0237C12.3493 27.2624 12.3493 26.0311 11.5863 25.2698ZM19.8402 33.505C19.0771 32.7437 17.843 32.7437 17.08 33.505C16.317 34.2663 16.317 35.4976 17.08 36.2589C17.843 37.0202 19.0771 37.0202 19.8402 36.2589C20.6032 35.4976 20.6032 34.2663 19.8402 33.505ZM28.094 41.7401C27.331 40.9788 26.0969 40.9788 25.3339 41.7401C24.5709 42.5014 24.5709 43.7327 25.3339 44.494C26.0969 45.2553 27.331 45.2553 28.094 44.494C28.8571 43.7327 28.8571 42.5014 28.094 41.7401ZM36.3479 49.9753C35.5849 49.214 34.3508 49.214 33.5878 49.9753C32.8248 50.7366 32.8248 51.9679 33.5878 52.7292C34.3508 53.4905 35.5849 53.4905 36.3479 52.7292C37.1043 51.9679 37.1043 50.7366 36.3479 49.9753ZM44.6018 58.2105C43.8388 57.4492 42.6047 57.4492 41.8417 58.2105C41.0786 58.9717 41.0786 60.2031 41.8417 60.9644C42.6047 61.7257 43.8388 61.7257 44.6018 60.9644C45.3582 60.2031 45.3582 58.9717 44.6018 58.2105ZM3.33241 33.505C2.56939 32.7437 1.33528 32.7437 0.572264 33.505C-0.190755 34.2663 -0.190755 35.4976 0.572264 36.2589C1.33528 37.0202 2.56939 37.0202 3.33241 36.2589C4.09543 35.4976 4.09543 34.2663 3.33241 33.505ZM11.5863 41.7401C10.8233 40.9788 9.58916 40.9788 8.82615 41.7401C8.06313 42.5014 8.06313 43.7327 8.82615 44.494C9.58916 45.2553 10.8233 45.2553 11.5863 44.494C12.3493 43.7327 12.3493 42.5014 11.5863 41.7401ZM19.8402 49.9753C19.0771 49.214 17.843 49.214 17.08 49.9753C16.317 50.7366 16.317 51.9679 17.08 52.7292C17.843 53.4905 19.0771 53.4905 19.8402 52.7292C20.6032 51.9679 20.6032 50.7366 19.8402 49.9753ZM28.094 58.2105C27.331 57.4492 26.0969 57.4492 25.3339 58.2105C24.5709 58.9717 24.5709 60.2031 25.3339 60.9644C26.0969 61.7257 27.331 61.7257 28.094 60.9644C28.8571 60.2031 28.8571 58.9717 28.094 58.2105ZM36.3479 66.4456C35.5849 65.6843 34.3508 65.6843 33.5878 66.4456C32.8248 67.2069 32.8248 68.4382 33.5878 69.1995C34.3508 69.9608 35.5849 69.9608 36.3479 69.1995C37.111 68.4382 37.1043 67.2069 36.3479 66.4456Z" fill="#44FF3A"/>
</svg>
