<svg width="47" height="47" viewBox="0 0 47 47" fill="none" xmlns="http://www.w3.org/2000/svg">
<path d="M24.4298 2.23974C23.917 2.75258 23.0875 2.75258 22.5747 2.23974C22.0618 1.72691 22.0618 0.897457 22.5747 0.384624C23.0875 -0.128208 23.917 -0.128208 24.4298 0.384624C24.9382 0.892998 24.9382 1.72691 24.4298 2.23974ZM29.9773 5.92767C29.4645 5.41484 28.635 5.41484 28.1222 5.92767C27.6094 6.44051 27.6094 7.26996 28.1222 7.78279C28.635 8.29562 29.4645 8.29562 29.9773 7.78279C30.4857 7.27442 30.4857 6.44051 29.9773 5.92767ZM35.5204 11.4752C35.0075 10.9624 34.1781 10.9624 33.6652 11.4752C33.1524 11.988 33.1524 12.8175 33.6652 13.3303C34.1781 13.8431 35.0075 13.8431 35.5204 13.3303C36.0332 12.8175 36.0332 11.988 35.5204 11.4752ZM41.0679 17.0227C40.555 16.5099 39.7256 16.5099 39.2127 17.0227C38.6999 17.5355 38.6999 18.365 39.2127 18.8778C39.7256 19.3906 40.555 19.3906 41.0679 18.8778C41.5807 18.365 41.5807 17.5355 41.0679 17.0227ZM46.6154 22.5702C46.1025 22.0574 45.2731 22.0574 44.7603 22.5702C44.2474 23.083 44.2474 23.9125 44.7603 24.4253C45.2731 24.9382 46.1025 24.9382 46.6154 24.4253C47.1282 23.9125 47.1282 23.083 46.6154 22.5702ZM18.8823 5.92767C18.3694 5.41484 17.54 5.41484 17.0272 5.92767C16.5143 6.44051 16.5143 7.26996 17.0272 7.78279C17.54 8.29562 18.3694 8.29562 18.8823 7.78279C19.3951 7.27442 19.3951 6.44051 18.8823 5.92767ZM24.4298 11.4752C23.917 10.9624 23.0875 10.9624 22.5747 11.4752C22.0618 11.988 22.0618 12.8175 22.5747 13.3303C23.0875 13.8431 23.917 13.8431 24.4298 13.3303C24.9382 12.8175 24.9382 11.988 24.4298 11.4752ZM29.9773 17.0227C29.4645 16.5099 28.635 16.5099 28.1222 17.0227C27.6094 17.5355 27.6094 18.365 28.1222 18.8778C28.635 19.3906 29.4645 19.3906 29.9773 18.8778C30.4857 18.365 30.4857 17.5355 29.9773 17.0227ZM35.5204 22.5702C35.0075 22.0574 34.1781 22.0574 33.6652 22.5702C33.1524 23.083 33.1524 23.9125 33.6652 24.4253C34.1781 24.9382 35.0075 24.9382 35.5204 24.4253C36.0332 23.9125 36.0332 23.083 35.5204 22.5702ZM41.0679 28.1177C40.555 27.6049 39.7256 27.6049 39.2127 28.1177C38.6999 28.6305 38.6999 29.46 39.2127 29.9728C39.7256 30.4857 40.555 30.4857 41.0679 29.9728C41.5807 29.46 41.5807 28.6305 41.0679 28.1177ZM13.3348 11.4752C12.8219 10.9624 11.9925 10.9624 11.4796 11.4752C10.9668 11.988 10.9668 12.8175 11.4796 13.3303C11.9925 13.8431 12.8219 13.8431 13.3348 13.3303C13.8476 12.8175 13.8476 11.988 13.3348 11.4752ZM18.8823 17.0227C18.3694 16.5099 17.54 16.5099 17.0272 17.0227C16.5143 17.5355 16.5143 18.365 17.0272 18.8778C17.54 19.3906 18.3694 19.3906 18.8823 18.8778C19.3951 18.365 19.3951 17.5355 18.8823 17.0227ZM24.4298 22.5702C23.917 22.0574 23.0875 22.0574 22.5747 22.5702C22.0618 23.083 22.0618 23.9125 22.5747 24.4253C23.0875 24.9382 23.917 24.9382 24.4298 24.4253C24.9382 23.9125 24.9382 23.083 24.4298 22.5702ZM29.9773 28.1177C29.4645 27.6049 28.635 27.6049 28.1222 28.1177C27.6094 28.6305 27.6094 29.46 28.1222 29.9728C28.635 30.4857 29.4645 30.4857 29.9773 29.9728C30.4857 29.46 30.4857 28.6305 29.9773 28.1177ZM35.5204 33.6652C35.0075 33.1524 34.1781 33.1524 33.6652 33.6652C33.1524 34.1781 33.1524 35.0075 33.6652 35.5204C34.1781 36.0332 35.0075 36.0332 35.5204 35.5204C36.0332 35.0075 36.0332 34.1781 35.5204 33.6652ZM7.78725 17.0227C7.27442 16.5099 6.44497 16.5099 5.93214 17.0227C5.4193 17.5355 5.4193 18.365 5.93214 18.8778C6.44497 19.3906 7.27442 19.3906 7.78725 18.8778C8.30009 18.365 8.30009 17.5355 7.78725 17.0227ZM13.3348 22.5702C12.8219 22.0574 11.9925 22.0574 11.4796 22.5702C10.9668 23.083 10.9668 23.9125 11.4796 24.4253C11.9925 24.9382 12.8219 24.9382 13.3348 24.4253C13.8476 23.9125 13.8476 23.083 13.3348 22.5702ZM18.8823 28.1177C18.3694 27.6049 17.54 27.6049 17.0272 28.1177C16.5143 28.6305 16.5143 29.46 17.0272 29.9728C17.54 30.4857 18.3694 30.4857 18.8823 29.9728C19.3951 29.46 19.3951 28.6305 18.8823 28.1177ZM24.4298 33.6652C23.917 33.1524 23.0875 33.1524 22.5747 33.6652C22.0618 34.1781 22.0618 35.0075 22.5747 35.5204C23.0875 36.0332 23.917 36.0332 24.4298 35.5204C24.9382 35.0075 24.9382 34.1781 24.4298 33.6652ZM29.9773 39.2127C29.4645 38.6999 28.635 38.6999 28.1222 39.2127C27.6094 39.7256 27.6094 40.555 28.1222 41.0679C28.635 41.5807 29.4645 41.5807 29.9773 41.0679C30.4857 40.555 30.4857 39.7256 29.9773 39.2127ZM2.23974 22.5702C1.72691 22.0574 0.897457 22.0574 0.384624 22.5702C-0.128208 23.083 -0.128208 23.9125 0.384624 24.4253C0.897457 24.9382 1.72691 24.9382 2.23974 24.4253C2.75258 23.9125 2.75258 23.083 2.23974 22.5702ZM7.78725 28.1177C7.27442 27.6049 6.44497 27.6049 5.93214 28.1177C5.4193 28.6305 5.4193 29.46 5.93214 29.9728C6.44497 30.4857 7.27442 30.4857 7.78725 29.9728C8.30009 29.46 8.30009 28.6305 7.78725 28.1177ZM13.3348 33.6652C12.8219 33.1524 11.9925 33.1524 11.4796 33.6652C10.9668 34.1781 10.9668 35.0075 11.4796 35.5204C11.9925 36.0332 12.8219 36.0332 13.3348 35.5204C13.8476 35.0075 13.8476 34.1781 13.3348 33.6652ZM18.8823 39.2127C18.3694 38.6999 17.54 38.6999 17.0272 39.2127C16.5143 39.7256 16.5143 40.555 17.0272 41.0679C17.54 41.5807 18.3694 41.5807 18.8823 41.0679C19.3951 40.555 19.3951 39.7256 18.8823 39.2127ZM24.4298 44.7602C23.917 44.2474 23.0875 44.2474 22.5747 44.7602C22.0618 45.2731 22.0618 46.1025 22.5747 46.6154C23.0875 47.1282 23.917 47.1282 24.4298 46.6154C24.9426 46.1025 24.9382 45.2731 24.4298 44.7602Z" fill="#79C975"/>
</svg>
