<svg width="60" height="55" viewBox="0 0 60 55" fill="none" xmlns="http://www.w3.org/2000/svg">
<g opacity="0.3">
<mask id="mask0" style="mask-type:alpha" maskUnits="userSpaceOnUse" x="0" y="32" width="7" height="7">
<path d="M3.2274 38.7113C5.00985 38.7113 6.45481 37.2707 6.45481 35.4937C6.45481 33.7167 5.00985 32.2761 3.2274 32.2761C1.44495 32.2761 0 33.7167 0 35.4937C0 37.2707 1.44495 38.7113 3.2274 38.7113Z" fill="url(#paint0_linear)"/>
</mask>
<g mask="url(#mask0)">
<path d="M3.2274 38.7113C5.00985 38.7113 6.45481 37.2707 6.45481 35.4937C6.45481 33.7167 5.00985 32.2761 3.2274 32.2761C1.44495 32.2761 0 33.7167 0 35.4937C0 37.2707 1.44495 38.7113 3.2274 38.7113Z" fill="url(#paint1_linear)"/>
</g>
<mask id="mask1" style="mask-type:alpha" maskUnits="userSpaceOnUse" x="0" y="18" width="7" height="8">
<path d="M3.2274 25.2801C5.00985 25.2801 6.45481 23.8396 6.45481 22.0625C6.45481 20.2855 5.00985 18.845 3.2274 18.845C1.44495 18.845 0 20.2855 0 22.0625C0 23.8396 1.44495 25.2801 3.2274 25.2801Z" fill="url(#paint2_linear)"/>
</mask>
<g mask="url(#mask1)">
<path d="M3.2274 25.2801C5.00985 25.2801 6.45481 23.8396 6.45481 22.0625C6.45481 20.2855 5.00985 18.845 3.2274 18.845C1.44495 18.845 0 20.2855 0 22.0625C0 23.8396 1.44495 25.2801 3.2274 25.2801Z" fill="url(#paint3_linear)"/>
</g>
<mask id="mask2" style="mask-type:alpha" maskUnits="userSpaceOnUse" x="0" y="2" width="7" height="7">
<path d="M3.2274 8.71129C5.00985 8.71129 6.45481 7.27071 6.45481 5.49369C6.45481 3.71667 5.00985 2.27612 3.2274 2.27612C1.44495 2.27612 0 3.71667 0 5.49369C0 7.27071 1.44495 8.71129 3.2274 8.71129Z" fill="url(#paint4_linear)"/>
</mask>
<g mask="url(#mask2)">
<path d="M3.2274 8.71129C5.00985 8.71129 6.45481 7.27071 6.45481 5.49369C6.45481 3.71667 5.00985 2.27612 3.2274 2.27612C1.44495 2.27612 0 3.71667 0 5.49369C0 7.27071 1.44495 8.71129 3.2274 8.71129Z" fill="url(#paint5_linear)"/>
</g>
<mask id="mask3" style="mask-type:alpha" maskUnits="userSpaceOnUse" x="18" y="32" width="8" height="7">
<path d="M21.9193 38.7115C23.7017 38.7115 25.1467 37.2709 25.1467 35.4939C25.1467 33.7169 23.7017 32.2764 21.9193 32.2764C20.1369 32.2764 18.6919 33.7169 18.6919 35.4939C18.6919 37.2709 20.1369 38.7115 21.9193 38.7115Z" fill="url(#paint6_linear)"/>
</mask>
<g mask="url(#mask3)">
<path d="M21.9193 38.7115C23.7017 38.7115 25.1467 37.2709 25.1467 35.4939C25.1467 33.7169 23.7017 32.2764 21.9193 32.2764C20.1369 32.2764 18.6919 33.7169 18.6919 35.4939C18.6919 37.2709 20.1369 38.7115 21.9193 38.7115Z" fill="url(#paint7_linear)"/>
</g>
<mask id="mask4" style="mask-type:alpha" maskUnits="userSpaceOnUse" x="18" y="2" width="8" height="7">
<path d="M21.9193 8.71129C23.7017 8.71129 25.1467 7.27071 25.1467 5.49369C25.1467 3.71667 23.7017 2.27612 21.9193 2.27612C20.1369 2.27612 18.6919 3.71667 18.6919 5.49369C18.6919 7.27071 20.1369 8.71129 21.9193 8.71129Z" fill="url(#paint8_linear)"/>
</mask>
<g mask="url(#mask4)">
<path d="M21.9193 8.71129C23.7017 8.71129 25.1467 7.27071 25.1467 5.49369C25.1467 3.71667 23.7017 2.27612 21.9193 2.27612C20.1369 2.27612 18.6919 3.71667 18.6919 5.49369C18.6919 7.27071 20.1369 8.71129 21.9193 8.71129Z" fill="url(#paint9_linear)"/>
</g>
<mask id="mask5" style="mask-type:alpha" maskUnits="userSpaceOnUse" x="37" y="32" width="7" height="7">
<path d="M40.6114 38.7115C42.3939 38.7115 43.8388 37.2709 43.8388 35.4939C43.8388 33.7169 42.3939 32.2764 40.6114 32.2764C38.829 32.2764 37.384 33.7169 37.384 35.4939C37.384 37.2709 38.829 38.7115 40.6114 38.7115Z" fill="url(#paint10_linear)"/>
</mask>
<g mask="url(#mask5)">
<path d="M40.6114 38.7115C42.3939 38.7115 43.8388 37.2709 43.8388 35.4939C43.8388 33.7169 42.3939 32.2764 40.6114 32.2764C38.829 32.2764 37.384 33.7169 37.384 35.4939C37.384 37.2709 38.829 38.7115 40.6114 38.7115Z" fill="url(#paint11_linear)"/>
</g>
<mask id="mask6" style="mask-type:alpha" maskUnits="userSpaceOnUse" x="37" y="2" width="7" height="7">
<path d="M40.6114 8.71129C42.3939 8.71129 43.8388 7.27071 43.8388 5.49369C43.8388 3.71667 42.3939 2.27612 40.6114 2.27612C38.829 2.27612 37.384 3.71667 37.384 5.49369C37.384 7.27071 38.829 8.71129 40.6114 8.71129Z" fill="url(#paint12_linear)"/>
</mask>
<g mask="url(#mask6)">
<path d="M40.6114 8.71129C42.3939 8.71129 43.8388 7.27071 43.8388 5.49369C43.8388 3.71667 42.3939 2.27612 40.6114 2.27612C38.829 2.27612 37.384 3.71667 37.384 5.49369C37.384 7.27071 38.829 8.71129 40.6114 8.71129Z" fill="url(#paint13_linear)"/>
</g>
<mask id="mask7" style="mask-type:alpha" maskUnits="userSpaceOnUse" x="56" y="32" width="7" height="7">
<path d="M59.3036 38.7115C61.086 38.7115 62.531 37.2709 62.531 35.4939C62.531 33.7169 61.086 32.2764 59.3036 32.2764C57.5211 32.2764 56.0762 33.7169 56.0762 35.4939C56.0762 37.2709 57.5211 38.7115 59.3036 38.7115Z" fill="url(#paint14_linear)"/>
</mask>
<g mask="url(#mask7)">
<path d="M59.3036 38.7115C61.086 38.7115 62.531 37.2709 62.531 35.4939C62.531 33.7169 61.086 32.2764 59.3036 32.2764C57.5211 32.2764 56.0762 33.7169 56.0762 35.4939C56.0762 37.2709 57.5211 38.7115 59.3036 38.7115Z" fill="url(#paint15_linear)"/>
</g>
<mask id="mask8" style="mask-type:alpha" maskUnits="userSpaceOnUse" x="56" y="2" width="7" height="7">
<path d="M59.3036 8.71129C61.086 8.71129 62.531 7.27071 62.531 5.49369C62.531 3.71667 61.086 2.27612 59.3036 2.27612C57.5211 2.27612 56.0762 3.71667 56.0762 5.49369C56.0762 7.27071 57.5211 8.71129 59.3036 8.71129Z" fill="url(#paint16_linear)"/>
</mask>
<g mask="url(#mask8)">
<path d="M59.3036 8.71129C61.086 8.71129 62.531 7.27071 62.531 5.49369C62.531 3.71667 61.086 2.27612 59.3036 2.27612C57.5211 2.27612 56.0762 3.71667 56.0762 5.49369C56.0762 7.27071 57.5211 8.71129 59.3036 8.71129Z" fill="url(#paint17_linear)"/>
</g>
<mask id="mask9" style="mask-type:alpha" maskUnits="userSpaceOnUse" x="0" y="48" width="7" height="7">
<path d="M3.2274 54.8329C5.00985 54.8329 6.45481 53.3923 6.45481 51.6153C6.45481 49.8383 5.00985 48.3977 3.2274 48.3977C1.44495 48.3977 0 49.8383 0 51.6153C0 53.3923 1.44495 54.8329 3.2274 54.8329Z" fill="url(#paint18_linear)"/>
</mask>
<g mask="url(#mask9)">
<path d="M3.2274 54.8329C5.00985 54.8329 6.45481 53.3923 6.45481 51.6153C6.45481 49.8383 5.00985 48.3977 3.2274 48.3977C1.44495 48.3977 0 49.8383 0 51.6153C0 53.3923 1.44495 54.8329 3.2274 54.8329Z" fill="url(#paint19_linear)"/>
</g>
<mask id="mask10" style="mask-type:alpha" maskUnits="userSpaceOnUse" x="18" y="48" width="8" height="7">
<path d="M21.9193 54.8329C23.7017 54.8329 25.1467 53.3923 25.1467 51.6153C25.1467 49.8383 23.7017 48.3977 21.9193 48.3977C20.1369 48.3977 18.6919 49.8383 18.6919 51.6153C18.6919 53.3923 20.1369 54.8329 21.9193 54.8329Z" fill="url(#paint20_linear)"/>
</mask>
<g mask="url(#mask10)">
<path d="M21.9193 54.8329C23.7017 54.8329 25.1467 53.3923 25.1467 51.6153C25.1467 49.8383 23.7017 48.3977 21.9193 48.3977C20.1369 48.3977 18.6919 49.8383 18.6919 51.6153C18.6919 53.3923 20.1369 54.8329 21.9193 54.8329Z" fill="url(#paint21_linear)"/>
</g>
<mask id="mask11" style="mask-type:alpha" maskUnits="userSpaceOnUse" x="18" y="18" width="8" height="7">
<path d="M21.9193 24.8329C23.7017 24.8329 25.1467 23.3923 25.1467 21.6153C25.1467 19.8383 23.7017 18.3977 21.9193 18.3977C20.1369 18.3977 18.6919 19.8383 18.6919 21.6153C18.6919 23.3923 20.1369 24.8329 21.9193 24.8329Z" fill="url(#paint22_linear)"/>
</mask>
<g mask="url(#mask11)">
<path d="M21.9193 24.8329C23.7017 24.8329 25.1467 23.3923 25.1467 21.6153C25.1467 19.8383 23.7017 18.3977 21.9193 18.3977C20.1369 18.3977 18.6919 19.8383 18.6919 21.6153C18.6919 23.3923 20.1369 24.8329 21.9193 24.8329Z" fill="url(#paint23_linear)"/>
</g>
<mask id="mask12" style="mask-type:alpha" maskUnits="userSpaceOnUse" x="37" y="48" width="7" height="7">
<path d="M40.6114 54.8329C42.3939 54.8329 43.8388 53.3923 43.8388 51.6153C43.8388 49.8383 42.3939 48.3977 40.6114 48.3977C38.829 48.3977 37.384 49.8383 37.384 51.6153C37.384 53.3923 38.829 54.8329 40.6114 54.8329Z" fill="url(#paint24_linear)"/>
</mask>
<g mask="url(#mask12)">
<path d="M40.6114 54.8329C42.3939 54.8329 43.8388 53.3923 43.8388 51.6153C43.8388 49.8383 42.3939 48.3977 40.6114 48.3977C38.829 48.3977 37.384 49.8383 37.384 51.6153C37.384 53.3923 38.829 54.8329 40.6114 54.8329Z" fill="url(#paint25_linear)"/>
</g>
<mask id="mask13" style="mask-type:alpha" maskUnits="userSpaceOnUse" x="37" y="18" width="7" height="7">
<path d="M40.6114 24.8329C42.3939 24.8329 43.8388 23.3923 43.8388 21.6153C43.8388 19.8383 42.3939 18.3977 40.6114 18.3977C38.829 18.3977 37.384 19.8383 37.384 21.6153C37.384 23.3923 38.829 24.8329 40.6114 24.8329Z" fill="url(#paint26_linear)"/>
</mask>
<g mask="url(#mask13)">
<path d="M40.6114 24.8329C42.3939 24.8329 43.8388 23.3923 43.8388 21.6153C43.8388 19.8383 42.3939 18.3977 40.6114 18.3977C38.829 18.3977 37.384 19.8383 37.384 21.6153C37.384 23.3923 38.829 24.8329 40.6114 24.8329Z" fill="url(#paint27_linear)"/>
</g>
<mask id="mask14" style="mask-type:alpha" maskUnits="userSpaceOnUse" x="56" y="48" width="7" height="7">
<path d="M59.3036 54.8329C61.086 54.8329 62.531 53.3923 62.531 51.6153C62.531 49.8383 61.086 48.3977 59.3036 48.3977C57.5211 48.3977 56.0762 49.8383 56.0762 51.6153C56.0762 53.3923 57.5211 54.8329 59.3036 54.8329Z" fill="url(#paint28_linear)"/>
</mask>
<g mask="url(#mask14)">
<path d="M59.3036 54.8329C61.086 54.8329 62.531 53.3923 62.531 51.6153C62.531 49.8383 61.086 48.3977 59.3036 48.3977C57.5211 48.3977 56.0762 49.8383 56.0762 51.6153C56.0762 53.3923 57.5211 54.8329 59.3036 54.8329Z" fill="url(#paint29_linear)"/>
</g>
<mask id="mask15" style="mask-type:alpha" maskUnits="userSpaceOnUse" x="56" y="18" width="7" height="7">
<path d="M59.3036 24.8329C61.086 24.8329 62.531 23.3923 62.531 21.6153C62.531 19.8383 61.086 18.3977 59.3036 18.3977C57.5211 18.3977 56.0762 19.8383 56.0762 21.6153C56.0762 23.3923 57.5211 24.8329 59.3036 24.8329Z" fill="url(#paint30_linear)"/>
</mask>
<g mask="url(#mask15)">
<path d="M59.3036 24.8329C61.086 24.8329 62.531 23.3923 62.531 21.6153C62.531 19.8383 61.086 18.3977 59.3036 18.3977C57.5211 18.3977 56.0762 19.8383 56.0762 21.6153C56.0762 23.3923 57.5211 24.8329 59.3036 24.8329Z" fill="url(#paint31_linear)"/>
</g>
</g>
<defs>
<linearGradient id="paint0_linear" x1="17.3883" y1="71.2957" x2="-26.6869" y2="-40.9291" gradientUnits="userSpaceOnUse">
<stop/>
<stop offset="1" stop-color="white"/>
</linearGradient>
<linearGradient id="paint1_linear" x1="4.3188" y1="38.2838" x2="-39.7564" y2="-73.941" gradientUnits="userSpaceOnUse">
<stop stop-color="#79C975"/>
<stop offset="1" stop-color="#78E91F"/>
</linearGradient>
<linearGradient id="paint2_linear" x1="17.3883" y1="57.8645" x2="-26.6869" y2="-54.3603" gradientUnits="userSpaceOnUse">
<stop/>
<stop offset="1" stop-color="white"/>
</linearGradient>
<linearGradient id="paint3_linear" x1="4.3188" y1="24.8526" x2="-39.7564" y2="-87.3721" gradientUnits="userSpaceOnUse">
<stop stop-color="#79C975"/>
<stop offset="1" stop-color="#78E91F"/>
</linearGradient>
<linearGradient id="paint4_linear" x1="17.3883" y1="41.2957" x2="-26.6869" y2="-70.9291" gradientUnits="userSpaceOnUse">
<stop/>
<stop offset="1" stop-color="white"/>
</linearGradient>
<linearGradient id="paint5_linear" x1="4.3188" y1="8.28376" x2="-39.7564" y2="-103.941" gradientUnits="userSpaceOnUse">
<stop stop-color="#79C975"/>
<stop offset="1" stop-color="#78E91F"/>
</linearGradient>
<linearGradient id="paint6_linear" x1="33.5637" y1="64.9431" x2="-10.5115" y2="-47.2817" gradientUnits="userSpaceOnUse">
<stop/>
<stop offset="1" stop-color="white"/>
</linearGradient>
<linearGradient id="paint7_linear" x1="23.0107" y1="38.284" x2="-21.0645" y2="-73.9407" gradientUnits="userSpaceOnUse">
<stop stop-color="#79C975"/>
<stop offset="1" stop-color="#78E91F"/>
</linearGradient>
<linearGradient id="paint8_linear" x1="33.5637" y1="34.9429" x2="-10.5115" y2="-77.2819" gradientUnits="userSpaceOnUse">
<stop/>
<stop offset="1" stop-color="white"/>
</linearGradient>
<linearGradient id="paint9_linear" x1="23.0107" y1="8.28376" x2="-21.0645" y2="-103.941" gradientUnits="userSpaceOnUse">
<stop stop-color="#79C975"/>
<stop offset="1" stop-color="#78E91F"/>
</linearGradient>
<linearGradient id="paint10_linear" x1="49.7393" y1="58.5903" x2="5.6642" y2="-53.6344" gradientUnits="userSpaceOnUse">
<stop/>
<stop offset="1" stop-color="white"/>
</linearGradient>
<linearGradient id="paint11_linear" x1="41.7028" y1="38.284" x2="-2.37232" y2="-73.9407" gradientUnits="userSpaceOnUse">
<stop stop-color="#79C975"/>
<stop offset="1" stop-color="#78E91F"/>
</linearGradient>
<linearGradient id="paint12_linear" x1="49.7393" y1="28.59" x2="5.6642" y2="-83.6347" gradientUnits="userSpaceOnUse">
<stop/>
<stop offset="1" stop-color="white"/>
</linearGradient>
<linearGradient id="paint13_linear" x1="41.7028" y1="8.28376" x2="-2.37232" y2="-103.941" gradientUnits="userSpaceOnUse">
<stop stop-color="#79C975"/>
<stop offset="1" stop-color="#78E91F"/>
</linearGradient>
<linearGradient id="paint14_linear" x1="65.915" y1="52.2375" x2="21.8398" y2="-59.9873" gradientUnits="userSpaceOnUse">
<stop/>
<stop offset="1" stop-color="white"/>
</linearGradient>
<linearGradient id="paint15_linear" x1="60.395" y1="38.284" x2="16.3198" y2="-73.9407" gradientUnits="userSpaceOnUse">
<stop stop-color="#79C975"/>
<stop offset="1" stop-color="#78E91F"/>
</linearGradient>
<linearGradient id="paint16_linear" x1="65.915" y1="22.2373" x2="21.8398" y2="-89.9875" gradientUnits="userSpaceOnUse">
<stop/>
<stop offset="1" stop-color="white"/>
</linearGradient>
<linearGradient id="paint17_linear" x1="60.395" y1="8.28376" x2="16.3198" y2="-103.941" gradientUnits="userSpaceOnUse">
<stop stop-color="#79C975"/>
<stop offset="1" stop-color="#78E91F"/>
</linearGradient>
<linearGradient id="paint18_linear" x1="11.8683" y1="73.4637" x2="-32.2069" y2="-38.761" gradientUnits="userSpaceOnUse">
<stop/>
<stop offset="1" stop-color="white"/>
</linearGradient>
<linearGradient id="paint19_linear" x1="4.3188" y1="54.4053" x2="-39.7564" y2="-57.8194" gradientUnits="userSpaceOnUse">
<stop stop-color="#79C975"/>
<stop offset="1" stop-color="#78E91F"/>
</linearGradient>
<linearGradient id="paint20_linear" x1="28.0437" y1="67.1109" x2="-16.0315" y2="-45.1138" gradientUnits="userSpaceOnUse">
<stop/>
<stop offset="1" stop-color="white"/>
</linearGradient>
<linearGradient id="paint21_linear" x1="23.0107" y1="54.4053" x2="-21.0645" y2="-57.8194" gradientUnits="userSpaceOnUse">
<stop stop-color="#79C975"/>
<stop offset="1" stop-color="#78E91F"/>
</linearGradient>
<linearGradient id="paint22_linear" x1="28.0437" y1="37.1109" x2="-16.0315" y2="-75.1138" gradientUnits="userSpaceOnUse">
<stop/>
<stop offset="1" stop-color="white"/>
</linearGradient>
<linearGradient id="paint23_linear" x1="23.0107" y1="24.4053" x2="-21.0645" y2="-87.8194" gradientUnits="userSpaceOnUse">
<stop stop-color="#79C975"/>
<stop offset="1" stop-color="#78E91F"/>
</linearGradient>
<linearGradient id="paint24_linear" x1="44.2193" y1="60.7582" x2="0.14422" y2="-51.4665" gradientUnits="userSpaceOnUse">
<stop/>
<stop offset="1" stop-color="white"/>
</linearGradient>
<linearGradient id="paint25_linear" x1="41.7028" y1="54.4053" x2="-2.37232" y2="-57.8194" gradientUnits="userSpaceOnUse">
<stop stop-color="#79C975"/>
<stop offset="1" stop-color="#78E91F"/>
</linearGradient>
<linearGradient id="paint26_linear" x1="44.2193" y1="30.7582" x2="0.14422" y2="-81.4665" gradientUnits="userSpaceOnUse">
<stop/>
<stop offset="1" stop-color="white"/>
</linearGradient>
<linearGradient id="paint27_linear" x1="41.7028" y1="24.4053" x2="-2.37232" y2="-87.8194" gradientUnits="userSpaceOnUse">
<stop stop-color="#79C975"/>
<stop offset="1" stop-color="#78E91F"/>
</linearGradient>
<linearGradient id="paint28_linear" x1="60.395" y1="54.4053" x2="16.3198" y2="-57.8194" gradientUnits="userSpaceOnUse">
<stop/>
<stop offset="1" stop-color="white"/>
</linearGradient>
<linearGradient id="paint29_linear" x1="60.395" y1="54.4053" x2="16.3198" y2="-57.8194" gradientUnits="userSpaceOnUse">
<stop stop-color="#79C975"/>
<stop offset="1" stop-color="#78E91F"/>
</linearGradient>
<linearGradient id="paint30_linear" x1="60.395" y1="24.4053" x2="16.3198" y2="-87.8194" gradientUnits="userSpaceOnUse">
<stop/>
<stop offset="1" stop-color="white"/>
</linearGradient>
<linearGradient id="paint31_linear" x1="60.395" y1="24.4053" x2="16.3198" y2="-87.8194" gradientUnits="userSpaceOnUse">
<stop stop-color="#79C975"/>
<stop offset="1" stop-color="#78E91F"/>
</linearGradient>
</defs>
</svg>
