<svg width="82" height="71" viewBox="0 0 82 71" fill="none" xmlns="http://www.w3.org/2000/svg">
<g opacity="0.3">
<mask id="mask0" style="mask-type:alpha" maskUnits="userSpaceOnUse" x="0" y="0" width="7" height="7">
<path d="M3.2274 6.43517C5.00985 6.43517 6.45481 4.99458 6.45481 3.21757C6.45481 1.44055 5.00985 0 3.2274 0C1.44495 0 0 1.44055 0 3.21757C0 4.99458 1.44495 6.43517 3.2274 6.43517Z" fill="url(#paint0_linear)"/>
</mask>
<g mask="url(#mask0)">
<path d="M3.2274 6.43517C5.00985 6.43517 6.45481 4.99458 6.45481 3.21757C6.45481 1.44055 5.00985 0 3.2274 0C1.44495 0 0 1.44055 0 3.21757C0 4.99458 1.44495 6.43517 3.2274 6.43517Z" fill="url(#paint1_linear)"/>
</g>
<mask id="mask1" style="mask-type:alpha" maskUnits="userSpaceOnUse" x="18" y="0" width="8" height="7">
<path d="M21.9194 6.43517C23.7019 6.43517 25.1468 4.99458 25.1468 3.21757C25.1468 1.44055 23.7019 0 21.9194 0C20.137 0 18.692 1.44055 18.692 3.21757C18.692 4.99458 20.137 6.43517 21.9194 6.43517Z" fill="url(#paint2_linear)"/>
</mask>
<g mask="url(#mask1)">
<path d="M21.9194 6.43517C23.7019 6.43517 25.1468 4.99458 25.1468 3.21757C25.1468 1.44055 23.7019 0 21.9194 0C20.137 0 18.692 1.44055 18.692 3.21757C18.692 4.99458 20.137 6.43517 21.9194 6.43517Z" fill="url(#paint3_linear)"/>
</g>
<mask id="mask2" style="mask-type:alpha" maskUnits="userSpaceOnUse" x="37" y="0" width="7" height="7">
<path d="M40.6116 6.43517C42.394 6.43517 43.839 4.99458 43.839 3.21757C43.839 1.44055 42.394 0 40.6116 0C38.8291 0 37.3842 1.44055 37.3842 3.21757C37.3842 4.99458 38.8291 6.43517 40.6116 6.43517Z" fill="url(#paint4_linear)"/>
</mask>
<g mask="url(#mask2)">
<path d="M40.6116 6.43517C42.394 6.43517 43.839 4.99458 43.839 3.21757C43.839 1.44055 42.394 0 40.6116 0C38.8291 0 37.3842 1.44055 37.3842 3.21757C37.3842 4.99458 38.8291 6.43517 40.6116 6.43517Z" fill="url(#paint5_linear)"/>
</g>
<mask id="mask3" style="mask-type:alpha" maskUnits="userSpaceOnUse" x="56" y="0" width="7" height="7">
<path d="M59.3036 6.43517C61.086 6.43517 62.531 4.99458 62.531 3.21757C62.531 1.44055 61.086 0 59.3036 0C57.5211 0 56.0762 1.44055 56.0762 3.21757C56.0762 4.99458 57.5211 6.43517 59.3036 6.43517Z" fill="url(#paint6_linear)"/>
</mask>
<g mask="url(#mask3)">
<path d="M59.3036 6.43517C61.086 6.43517 62.531 4.99458 62.531 3.21757C62.531 1.44055 61.086 0 59.3036 0C57.5211 0 56.0762 1.44055 56.0762 3.21757C56.0762 4.99458 57.5211 6.43517 59.3036 6.43517Z" fill="url(#paint7_linear)"/>
</g>
<mask id="mask4" style="mask-type:alpha" maskUnits="userSpaceOnUse" x="74" y="0" width="8" height="7">
<path d="M77.9956 6.43517C79.778 6.43517 81.223 4.99458 81.223 3.21757C81.223 1.44055 79.778 0 77.9956 0C76.2131 0 74.7682 1.44055 74.7682 3.21757C74.7682 4.99458 76.2131 6.43517 77.9956 6.43517Z" fill="url(#paint8_linear)"/>
</mask>
<g mask="url(#mask4)">
<path d="M77.9956 6.43517C79.778 6.43517 81.223 4.99458 81.223 3.21757C81.223 1.44055 79.778 0 77.9956 0C76.2131 0 74.7682 1.44055 74.7682 3.21757C74.7682 4.99458 76.2131 6.43517 77.9956 6.43517Z" fill="url(#paint9_linear)"/>
</g>
<mask id="mask5" style="mask-type:alpha" maskUnits="userSpaceOnUse" x="0" y="16" width="7" height="7">
<path d="M3.2274 22.5901C5.00985 22.5901 6.45481 21.1495 6.45481 19.3725C6.45481 17.5955 5.00985 16.155 3.2274 16.155C1.44495 16.155 0 17.5955 0 19.3725C0 21.1495 1.44495 22.5901 3.2274 22.5901Z" fill="url(#paint10_linear)"/>
</mask>
<g mask="url(#mask5)">
<path d="M3.2274 22.5901C5.00985 22.5901 6.45481 21.1495 6.45481 19.3725C6.45481 17.5955 5.00985 16.155 3.2274 16.155C1.44495 16.155 0 17.5955 0 19.3725C0 21.1495 1.44495 22.5901 3.2274 22.5901Z" fill="url(#paint11_linear)"/>
</g>
<mask id="mask6" style="mask-type:alpha" maskUnits="userSpaceOnUse" x="18" y="16" width="8" height="7">
<path d="M21.9194 22.5901C23.7019 22.5901 25.1468 21.1495 25.1468 19.3725C25.1468 17.5955 23.7019 16.155 21.9194 16.155C20.137 16.155 18.692 17.5955 18.692 19.3725C18.692 21.1495 20.137 22.5901 21.9194 22.5901Z" fill="url(#paint12_linear)"/>
</mask>
<g mask="url(#mask6)">
<path d="M21.9194 22.5901C23.7019 22.5901 25.1468 21.1495 25.1468 19.3725C25.1468 17.5955 23.7019 16.155 21.9194 16.155C20.137 16.155 18.692 17.5955 18.692 19.3725C18.692 21.1495 20.137 22.5901 21.9194 22.5901Z" fill="url(#paint13_linear)"/>
</g>
<mask id="mask7" style="mask-type:alpha" maskUnits="userSpaceOnUse" x="37" y="16" width="7" height="7">
<path d="M40.6116 22.5901C42.394 22.5901 43.839 21.1495 43.839 19.3725C43.839 17.5955 42.394 16.155 40.6116 16.155C38.8291 16.155 37.3842 17.5955 37.3842 19.3725C37.3842 21.1495 38.8291 22.5901 40.6116 22.5901Z" fill="url(#paint14_linear)"/>
</mask>
<g mask="url(#mask7)">
<path d="M40.6116 22.5901C42.394 22.5901 43.839 21.1495 43.839 19.3725C43.839 17.5955 42.394 16.155 40.6116 16.155C38.8291 16.155 37.3842 17.5955 37.3842 19.3725C37.3842 21.1495 38.8291 22.5901 40.6116 22.5901Z" fill="url(#paint15_linear)"/>
</g>
<mask id="mask8" style="mask-type:alpha" maskUnits="userSpaceOnUse" x="56" y="16" width="7" height="7">
<path d="M59.3036 22.5901C61.086 22.5901 62.531 21.1495 62.531 19.3725C62.531 17.5955 61.086 16.155 59.3036 16.155C57.5211 16.155 56.0762 17.5955 56.0762 19.3725C56.0762 21.1495 57.5211 22.5901 59.3036 22.5901Z" fill="url(#paint16_linear)"/>
</mask>
<g mask="url(#mask8)">
<path d="M59.3036 22.5901C61.086 22.5901 62.531 21.1495 62.531 19.3725C62.531 17.5955 61.086 16.155 59.3036 16.155C57.5211 16.155 56.0762 17.5955 56.0762 19.3725C56.0762 21.1495 57.5211 22.5901 59.3036 22.5901Z" fill="url(#paint17_linear)"/>
</g>
<mask id="mask9" style="mask-type:alpha" maskUnits="userSpaceOnUse" x="74" y="16" width="8" height="7">
<path d="M77.9956 22.5901C79.778 22.5901 81.223 21.1495 81.223 19.3725C81.223 17.5955 79.778 16.155 77.9956 16.155C76.2131 16.155 74.7682 17.5955 74.7682 19.3725C74.7682 21.1495 76.2131 22.5901 77.9956 22.5901Z" fill="url(#paint18_linear)"/>
</mask>
<g mask="url(#mask9)">
<path d="M77.9956 22.5901C79.778 22.5901 81.223 21.1495 81.223 19.3725C81.223 17.5955 79.778 16.155 77.9956 16.155C76.2131 16.155 74.7682 17.5955 74.7682 19.3725C74.7682 21.1495 76.2131 22.5901 77.9956 22.5901Z" fill="url(#paint19_linear)"/>
</g>
<mask id="mask10" style="mask-type:alpha" maskUnits="userSpaceOnUse" x="0" y="32" width="7" height="7">
<path d="M3.2274 38.7115C5.00985 38.7115 6.45481 37.2709 6.45481 35.4939C6.45481 33.7169 5.00985 32.2763 3.2274 32.2763C1.44495 32.2763 0 33.7169 0 35.4939C0 37.2709 1.44495 38.7115 3.2274 38.7115Z" fill="url(#paint20_linear)"/>
</mask>
<g mask="url(#mask10)">
<path d="M3.2274 38.7115C5.00985 38.7115 6.45481 37.2709 6.45481 35.4939C6.45481 33.7169 5.00985 32.2763 3.2274 32.2763C1.44495 32.2763 0 33.7169 0 35.4939C0 37.2709 1.44495 38.7115 3.2274 38.7115Z" fill="url(#paint21_linear)"/>
</g>
<mask id="mask11" style="mask-type:alpha" maskUnits="userSpaceOnUse" x="18" y="32" width="8" height="7">
<path d="M21.9194 38.7115C23.7019 38.7115 25.1468 37.2709 25.1468 35.4939C25.1468 33.7169 23.7019 32.2763 21.9194 32.2763C20.137 32.2763 18.692 33.7169 18.692 35.4939C18.692 37.2709 20.137 38.7115 21.9194 38.7115Z" fill="url(#paint22_linear)"/>
</mask>
<g mask="url(#mask11)">
<path d="M21.9194 38.7115C23.7019 38.7115 25.1468 37.2709 25.1468 35.4939C25.1468 33.7169 23.7019 32.2763 21.9194 32.2763C20.137 32.2763 18.692 33.7169 18.692 35.4939C18.692 37.2709 20.137 38.7115 21.9194 38.7115Z" fill="url(#paint23_linear)"/>
</g>
<mask id="mask12" style="mask-type:alpha" maskUnits="userSpaceOnUse" x="37" y="32" width="7" height="7">
<path d="M40.6116 38.7115C42.394 38.7115 43.839 37.2709 43.839 35.4939C43.839 33.7169 42.394 32.2763 40.6116 32.2763C38.8291 32.2763 37.3842 33.7169 37.3842 35.4939C37.3842 37.2709 38.8291 38.7115 40.6116 38.7115Z" fill="url(#paint24_linear)"/>
</mask>
<g mask="url(#mask12)">
<path d="M40.6116 38.7115C42.394 38.7115 43.839 37.2709 43.839 35.4939C43.839 33.7169 42.394 32.2763 40.6116 32.2763C38.8291 32.2763 37.3842 33.7169 37.3842 35.4939C37.3842 37.2709 38.8291 38.7115 40.6116 38.7115Z" fill="url(#paint25_linear)"/>
</g>
<mask id="mask13" style="mask-type:alpha" maskUnits="userSpaceOnUse" x="56" y="32" width="7" height="7">
<path d="M59.3036 38.7115C61.086 38.7115 62.531 37.2709 62.531 35.4939C62.531 33.7169 61.086 32.2763 59.3036 32.2763C57.5211 32.2763 56.0762 33.7169 56.0762 35.4939C56.0762 37.2709 57.5211 38.7115 59.3036 38.7115Z" fill="url(#paint26_linear)"/>
</mask>
<g mask="url(#mask13)">
<path d="M59.3036 38.7115C61.086 38.7115 62.531 37.2709 62.531 35.4939C62.531 33.7169 61.086 32.2763 59.3036 32.2763C57.5211 32.2763 56.0762 33.7169 56.0762 35.4939C56.0762 37.2709 57.5211 38.7115 59.3036 38.7115Z" fill="url(#paint27_linear)"/>
</g>
<mask id="mask14" style="mask-type:alpha" maskUnits="userSpaceOnUse" x="74" y="32" width="8" height="7">
<path d="M77.9956 38.7115C79.778 38.7115 81.223 37.2709 81.223 35.4939C81.223 33.7169 79.778 32.2763 77.9956 32.2763C76.2131 32.2763 74.7682 33.7169 74.7682 35.4939C74.7682 37.2709 76.2131 38.7115 77.9956 38.7115Z" fill="url(#paint28_linear)"/>
</mask>
<g mask="url(#mask14)">
<path d="M77.9956 38.7115C79.778 38.7115 81.223 37.2709 81.223 35.4939C81.223 33.7169 79.778 32.2763 77.9956 32.2763C76.2131 32.2763 74.7682 33.7169 74.7682 35.4939C74.7682 37.2709 76.2131 38.7115 77.9956 38.7115Z" fill="url(#paint29_linear)"/>
</g>
<mask id="mask15" style="mask-type:alpha" maskUnits="userSpaceOnUse" x="0" y="48" width="7" height="7">
<path d="M3.2274 54.8664C5.00985 54.8664 6.45481 53.4258 6.45481 51.6488C6.45481 49.8718 5.00985 48.4312 3.2274 48.4312C1.44495 48.4312 0 49.8718 0 51.6488C0 53.4258 1.44495 54.8664 3.2274 54.8664Z" fill="url(#paint30_linear)"/>
</mask>
<g mask="url(#mask15)">
<path d="M3.2274 54.8664C5.00985 54.8664 6.45481 53.4258 6.45481 51.6488C6.45481 49.8718 5.00985 48.4312 3.2274 48.4312C1.44495 48.4312 0 49.8718 0 51.6488C0 53.4258 1.44495 54.8664 3.2274 54.8664Z" fill="url(#paint31_linear)"/>
</g>
<mask id="mask16" style="mask-type:alpha" maskUnits="userSpaceOnUse" x="18" y="48" width="8" height="7">
<path d="M21.9194 54.8664C23.7019 54.8664 25.1468 53.4258 25.1468 51.6488C25.1468 49.8718 23.7019 48.4312 21.9194 48.4312C20.137 48.4312 18.692 49.8718 18.692 51.6488C18.692 53.4258 20.137 54.8664 21.9194 54.8664Z" fill="url(#paint32_linear)"/>
</mask>
<g mask="url(#mask16)">
<path d="M21.9194 54.8664C23.7019 54.8664 25.1468 53.4258 25.1468 51.6488C25.1468 49.8718 23.7019 48.4312 21.9194 48.4312C20.137 48.4312 18.692 49.8718 18.692 51.6488C18.692 53.4258 20.137 54.8664 21.9194 54.8664Z" fill="url(#paint33_linear)"/>
</g>
<mask id="mask17" style="mask-type:alpha" maskUnits="userSpaceOnUse" x="37" y="48" width="7" height="7">
<path d="M40.6116 54.8664C42.394 54.8664 43.839 53.4258 43.839 51.6488C43.839 49.8718 42.394 48.4312 40.6116 48.4312C38.8291 48.4312 37.3842 49.8718 37.3842 51.6488C37.3842 53.4258 38.8291 54.8664 40.6116 54.8664Z" fill="url(#paint34_linear)"/>
</mask>
<g mask="url(#mask17)">
<path d="M40.6116 54.8664C42.394 54.8664 43.839 53.4258 43.839 51.6488C43.839 49.8718 42.394 48.4312 40.6116 48.4312C38.8291 48.4312 37.3842 49.8718 37.3842 51.6488C37.3842 53.4258 38.8291 54.8664 40.6116 54.8664Z" fill="url(#paint35_linear)"/>
</g>
<mask id="mask18" style="mask-type:alpha" maskUnits="userSpaceOnUse" x="56" y="48" width="7" height="7">
<path d="M59.3036 54.8664C61.086 54.8664 62.531 53.4258 62.531 51.6488C62.531 49.8718 61.086 48.4312 59.3036 48.4312C57.5211 48.4312 56.0762 49.8718 56.0762 51.6488C56.0762 53.4258 57.5211 54.8664 59.3036 54.8664Z" fill="url(#paint36_linear)"/>
</mask>
<g mask="url(#mask18)">
<path d="M59.3036 54.8664C61.086 54.8664 62.531 53.4258 62.531 51.6488C62.531 49.8718 61.086 48.4312 59.3036 48.4312C57.5211 48.4312 56.0762 49.8718 56.0762 51.6488C56.0762 53.4258 57.5211 54.8664 59.3036 54.8664Z" fill="url(#paint37_linear)"/>
</g>
<mask id="mask19" style="mask-type:alpha" maskUnits="userSpaceOnUse" x="74" y="48" width="8" height="7">
<path d="M77.9956 54.8664C79.778 54.8664 81.223 53.4258 81.223 51.6488C81.223 49.8718 79.778 48.4312 77.9956 48.4312C76.2131 48.4312 74.7682 49.8718 74.7682 51.6488C74.7682 53.4258 76.2131 54.8664 77.9956 54.8664Z" fill="url(#paint38_linear)"/>
</mask>
<g mask="url(#mask19)">
<path d="M77.9956 54.8664C79.778 54.8664 81.223 53.4258 81.223 51.6488C81.223 49.8718 79.778 48.4312 77.9956 48.4312C76.2131 48.4312 74.7682 49.8718 74.7682 51.6488C74.7682 53.4258 76.2131 54.8664 77.9956 54.8664Z" fill="url(#paint39_linear)"/>
</g>
<mask id="mask20" style="mask-type:alpha" maskUnits="userSpaceOnUse" x="0" y="64" width="7" height="7">
<path d="M3.2274 70.9878C5.00985 70.9878 6.45481 69.5472 6.45481 67.7702C6.45481 65.9932 5.00985 64.5526 3.2274 64.5526C1.44495 64.5526 0 65.9932 0 67.7702C0 69.5472 1.44495 70.9878 3.2274 70.9878Z" fill="url(#paint40_linear)"/>
</mask>
<g mask="url(#mask20)">
<path d="M3.2274 70.9878C5.00985 70.9878 6.45481 69.5472 6.45481 67.7702C6.45481 65.9932 5.00985 64.5526 3.2274 64.5526C1.44495 64.5526 0 65.9932 0 67.7702C0 69.5472 1.44495 70.9878 3.2274 70.9878Z" fill="url(#paint41_linear)"/>
</g>
<mask id="mask21" style="mask-type:alpha" maskUnits="userSpaceOnUse" x="18" y="64" width="8" height="7">
<path d="M21.9194 70.9878C23.7019 70.9878 25.1468 69.5472 25.1468 67.7702C25.1468 65.9932 23.7019 64.5526 21.9194 64.5526C20.137 64.5526 18.692 65.9932 18.692 67.7702C18.692 69.5472 20.137 70.9878 21.9194 70.9878Z" fill="url(#paint42_linear)"/>
</mask>
<g mask="url(#mask21)">
<path d="M21.9194 70.9878C23.7019 70.9878 25.1468 69.5472 25.1468 67.7702C25.1468 65.9932 23.7019 64.5526 21.9194 64.5526C20.137 64.5526 18.692 65.9932 18.692 67.7702C18.692 69.5472 20.137 70.9878 21.9194 70.9878Z" fill="url(#paint43_linear)"/>
</g>
<mask id="mask22" style="mask-type:alpha" maskUnits="userSpaceOnUse" x="37" y="64" width="7" height="7">
<path d="M40.6116 70.9878C42.394 70.9878 43.839 69.5472 43.839 67.7702C43.839 65.9932 42.394 64.5526 40.6116 64.5526C38.8291 64.5526 37.3842 65.9932 37.3842 67.7702C37.3842 69.5472 38.8291 70.9878 40.6116 70.9878Z" fill="url(#paint44_linear)"/>
</mask>
<g mask="url(#mask22)">
<path d="M40.6116 70.9878C42.394 70.9878 43.839 69.5472 43.839 67.7702C43.839 65.9932 42.394 64.5526 40.6116 64.5526C38.8291 64.5526 37.3842 65.9932 37.3842 67.7702C37.3842 69.5472 38.8291 70.9878 40.6116 70.9878Z" fill="url(#paint45_linear)"/>
</g>
<mask id="mask23" style="mask-type:alpha" maskUnits="userSpaceOnUse" x="56" y="64" width="7" height="7">
<path d="M59.3036 70.9878C61.086 70.9878 62.531 69.5472 62.531 67.7702C62.531 65.9932 61.086 64.5526 59.3036 64.5526C57.5211 64.5526 56.0762 65.9932 56.0762 67.7702C56.0762 69.5472 57.5211 70.9878 59.3036 70.9878Z" fill="url(#paint46_linear)"/>
</mask>
<g mask="url(#mask23)">
<path d="M59.3036 70.9878C61.086 70.9878 62.531 69.5472 62.531 67.7702C62.531 65.9932 61.086 64.5526 59.3036 64.5526C57.5211 64.5526 56.0762 65.9932 56.0762 67.7702C56.0762 69.5472 57.5211 70.9878 59.3036 70.9878Z" fill="url(#paint47_linear)"/>
</g>
<mask id="mask24" style="mask-type:alpha" maskUnits="userSpaceOnUse" x="74" y="64" width="8" height="7">
<path d="M77.9956 70.9878C79.778 70.9878 81.223 69.5472 81.223 67.7702C81.223 65.9932 79.778 64.5526 77.9956 64.5526C76.2131 64.5526 74.7682 65.9932 74.7682 67.7702C74.7682 69.5472 76.2131 70.9878 77.9956 70.9878Z" fill="url(#paint48_linear)"/>
</mask>
<g mask="url(#mask24)">
<path d="M77.9956 70.9878C79.778 70.9878 81.223 69.5472 81.223 67.7702C81.223 65.9932 79.778 64.5526 77.9956 64.5526C76.2131 64.5526 74.7682 65.9932 74.7682 67.7702C74.7682 69.5472 76.2131 70.9878 77.9956 70.9878Z" fill="url(#paint49_linear)"/>
</g>
</g>
<defs>
<linearGradient id="paint0_linear" x1="33.9482" y1="80.947" x2="-10.127" y2="-31.2778" gradientUnits="userSpaceOnUse">
<stop/>
<stop offset="1" stop-color="white"/>
</linearGradient>
<linearGradient id="paint1_linear" x1="33.9482" y1="80.947" x2="-10.127" y2="-31.2778" gradientUnits="userSpaceOnUse">
<stop stop-color="#97C3F9"/>
<stop offset="1" stop-color="#93C1F9"/>
</linearGradient>
<linearGradient id="paint2_linear" x1="50.1238" y1="74.5943" x2="6.04867" y2="-37.6305" gradientUnits="userSpaceOnUse">
<stop/>
<stop offset="1" stop-color="white"/>
</linearGradient>
<linearGradient id="paint3_linear" x1="50.1238" y1="74.5943" x2="6.04867" y2="-37.6305" gradientUnits="userSpaceOnUse">
<stop stop-color="#97C3F9"/>
<stop offset="1" stop-color="#93C1F9"/>
</linearGradient>
<linearGradient id="paint4_linear" x1="66.2995" y1="68.2416" x2="22.2244" y2="-43.9831" gradientUnits="userSpaceOnUse">
<stop/>
<stop offset="1" stop-color="white"/>
</linearGradient>
<linearGradient id="paint5_linear" x1="66.2995" y1="68.2416" x2="22.2244" y2="-43.9831" gradientUnits="userSpaceOnUse">
<stop stop-color="#97C3F9"/>
<stop offset="1" stop-color="#93C1F9"/>
</linearGradient>
<linearGradient id="paint6_linear" x1="82.475" y1="61.8887" x2="38.3998" y2="-50.3362" gradientUnits="userSpaceOnUse">
<stop/>
<stop offset="1" stop-color="white"/>
</linearGradient>
<linearGradient id="paint7_linear" x1="82.475" y1="61.8887" x2="38.3998" y2="-50.3362" gradientUnits="userSpaceOnUse">
<stop stop-color="#97C3F9"/>
<stop offset="1" stop-color="#93C1F9"/>
</linearGradient>
<linearGradient id="paint8_linear" x1="98.6505" y1="55.5359" x2="54.5753" y2="-56.689" gradientUnits="userSpaceOnUse">
<stop/>
<stop offset="1" stop-color="white"/>
</linearGradient>
<linearGradient id="paint9_linear" x1="98.6505" y1="55.5359" x2="54.5753" y2="-56.689" gradientUnits="userSpaceOnUse">
<stop stop-color="#97C3F9"/>
<stop offset="1" stop-color="#93C1F9"/>
</linearGradient>
<linearGradient id="paint10_linear" x1="28.4283" y1="83.1146" x2="-15.6461" y2="-29.1094" gradientUnits="userSpaceOnUse">
<stop/>
<stop offset="1" stop-color="white"/>
</linearGradient>
<linearGradient id="paint11_linear" x1="28.4283" y1="83.1146" x2="-15.6461" y2="-29.1094" gradientUnits="userSpaceOnUse">
<stop stop-color="#97C3F9"/>
<stop offset="1" stop-color="#93C1F9"/>
</linearGradient>
<linearGradient id="paint12_linear" x1="44.6038" y1="76.7617" x2="0.52942" y2="-35.4624" gradientUnits="userSpaceOnUse">
<stop/>
<stop offset="1" stop-color="white"/>
</linearGradient>
<linearGradient id="paint13_linear" x1="44.6038" y1="76.7617" x2="0.52942" y2="-35.4624" gradientUnits="userSpaceOnUse">
<stop stop-color="#97C3F9"/>
<stop offset="1" stop-color="#93C1F9"/>
</linearGradient>
<linearGradient id="paint14_linear" x1="60.7794" y1="70.4088" x2="16.7051" y2="-41.8151" gradientUnits="userSpaceOnUse">
<stop/>
<stop offset="1" stop-color="white"/>
</linearGradient>
<linearGradient id="paint15_linear" x1="60.7794" y1="70.4088" x2="16.7051" y2="-41.8151" gradientUnits="userSpaceOnUse">
<stop stop-color="#97C3F9"/>
<stop offset="1" stop-color="#93C1F9"/>
</linearGradient>
<linearGradient id="paint16_linear" x1="76.9549" y1="64.0562" x2="32.8805" y2="-48.1678" gradientUnits="userSpaceOnUse">
<stop/>
<stop offset="1" stop-color="white"/>
</linearGradient>
<linearGradient id="paint17_linear" x1="76.9549" y1="64.0562" x2="32.8805" y2="-48.1678" gradientUnits="userSpaceOnUse">
<stop stop-color="#97C3F9"/>
<stop offset="1" stop-color="#93C1F9"/>
</linearGradient>
<linearGradient id="paint18_linear" x1="93.1305" y1="57.7034" x2="49.0561" y2="-54.5205" gradientUnits="userSpaceOnUse">
<stop/>
<stop offset="1" stop-color="white"/>
</linearGradient>
<linearGradient id="paint19_linear" x1="93.1305" y1="57.7034" x2="49.0561" y2="-54.5205" gradientUnits="userSpaceOnUse">
<stop stop-color="#97C3F9"/>
<stop offset="1" stop-color="#93C1F9"/>
</linearGradient>
<linearGradient id="paint20_linear" x1="22.9083" y1="85.2829" x2="-21.1669" y2="-26.9419" gradientUnits="userSpaceOnUse">
<stop/>
<stop offset="1" stop-color="white"/>
</linearGradient>
<linearGradient id="paint21_linear" x1="22.9083" y1="85.2829" x2="-21.1669" y2="-26.9419" gradientUnits="userSpaceOnUse">
<stop stop-color="#97C3F9"/>
<stop offset="1" stop-color="#93C1F9"/>
</linearGradient>
<linearGradient id="paint22_linear" x1="39.0838" y1="78.9301" x2="-4.99134" y2="-33.2948" gradientUnits="userSpaceOnUse">
<stop/>
<stop offset="1" stop-color="white"/>
</linearGradient>
<linearGradient id="paint23_linear" x1="39.0838" y1="78.9301" x2="-4.99134" y2="-33.2948" gradientUnits="userSpaceOnUse">
<stop stop-color="#97C3F9"/>
<stop offset="1" stop-color="#93C1F9"/>
</linearGradient>
<linearGradient id="paint24_linear" x1="55.2595" y1="72.5773" x2="11.1843" y2="-39.6475" gradientUnits="userSpaceOnUse">
<stop/>
<stop offset="1" stop-color="white"/>
</linearGradient>
<linearGradient id="paint25_linear" x1="55.2595" y1="72.5773" x2="11.1843" y2="-39.6475" gradientUnits="userSpaceOnUse">
<stop stop-color="#97C3F9"/>
<stop offset="1" stop-color="#93C1F9"/>
</linearGradient>
<linearGradient id="paint26_linear" x1="71.4349" y1="66.2244" x2="27.3598" y2="-46.0004" gradientUnits="userSpaceOnUse">
<stop/>
<stop offset="1" stop-color="white"/>
</linearGradient>
<linearGradient id="paint27_linear" x1="71.4349" y1="66.2244" x2="27.3598" y2="-46.0004" gradientUnits="userSpaceOnUse">
<stop stop-color="#97C3F9"/>
<stop offset="1" stop-color="#93C1F9"/>
</linearGradient>
<linearGradient id="paint28_linear" x1="87.6105" y1="59.8717" x2="43.5353" y2="-52.3532" gradientUnits="userSpaceOnUse">
<stop/>
<stop offset="1" stop-color="white"/>
</linearGradient>
<linearGradient id="paint29_linear" x1="87.6105" y1="59.8717" x2="43.5353" y2="-52.3532" gradientUnits="userSpaceOnUse">
<stop stop-color="#97C3F9"/>
<stop offset="1" stop-color="#93C1F9"/>
</linearGradient>
<linearGradient id="paint30_linear" x1="17.3883" y1="87.4507" x2="-26.6869" y2="-24.774" gradientUnits="userSpaceOnUse">
<stop/>
<stop offset="1" stop-color="white"/>
</linearGradient>
<linearGradient id="paint31_linear" x1="17.3883" y1="87.4507" x2="-26.6869" y2="-24.774" gradientUnits="userSpaceOnUse">
<stop stop-color="#97C3F9"/>
<stop offset="1" stop-color="#93C1F9"/>
</linearGradient>
<linearGradient id="paint32_linear" x1="33.5638" y1="81.098" x2="-10.5114" y2="-31.1268" gradientUnits="userSpaceOnUse">
<stop/>
<stop offset="1" stop-color="white"/>
</linearGradient>
<linearGradient id="paint33_linear" x1="33.5638" y1="81.098" x2="-10.5114" y2="-31.1268" gradientUnits="userSpaceOnUse">
<stop stop-color="#97C3F9"/>
<stop offset="1" stop-color="#93C1F9"/>
</linearGradient>
<linearGradient id="paint34_linear" x1="49.7394" y1="74.7451" x2="5.66432" y2="-37.4796" gradientUnits="userSpaceOnUse">
<stop/>
<stop offset="1" stop-color="white"/>
</linearGradient>
<linearGradient id="paint35_linear" x1="49.7394" y1="74.7451" x2="5.66432" y2="-37.4796" gradientUnits="userSpaceOnUse">
<stop stop-color="#97C3F9"/>
<stop offset="1" stop-color="#93C1F9"/>
</linearGradient>
<linearGradient id="paint36_linear" x1="65.915" y1="68.3924" x2="21.8398" y2="-43.8324" gradientUnits="userSpaceOnUse">
<stop/>
<stop offset="1" stop-color="white"/>
</linearGradient>
<linearGradient id="paint37_linear" x1="65.915" y1="68.3924" x2="21.8398" y2="-43.8324" gradientUnits="userSpaceOnUse">
<stop stop-color="#97C3F9"/>
<stop offset="1" stop-color="#93C1F9"/>
</linearGradient>
<linearGradient id="paint38_linear" x1="82.0905" y1="62.0396" x2="38.0153" y2="-50.1853" gradientUnits="userSpaceOnUse">
<stop/>
<stop offset="1" stop-color="white"/>
</linearGradient>
<linearGradient id="paint39_linear" x1="82.0905" y1="62.0396" x2="38.0153" y2="-50.1853" gradientUnits="userSpaceOnUse">
<stop stop-color="#97C3F9"/>
<stop offset="1" stop-color="#93C1F9"/>
</linearGradient>
<linearGradient id="paint40_linear" x1="11.8683" y1="89.6186" x2="-32.2069" y2="-22.6061" gradientUnits="userSpaceOnUse">
<stop/>
<stop offset="1" stop-color="white"/>
</linearGradient>
<linearGradient id="paint41_linear" x1="11.8683" y1="89.6186" x2="-32.2069" y2="-22.6061" gradientUnits="userSpaceOnUse">
<stop stop-color="#97C3F9"/>
<stop offset="1" stop-color="#93C1F9"/>
</linearGradient>
<linearGradient id="paint42_linear" x1="28.0438" y1="83.2658" x2="-16.0313" y2="-28.9589" gradientUnits="userSpaceOnUse">
<stop/>
<stop offset="1" stop-color="white"/>
</linearGradient>
<linearGradient id="paint43_linear" x1="28.0438" y1="83.2658" x2="-16.0313" y2="-28.9589" gradientUnits="userSpaceOnUse">
<stop stop-color="#97C3F9"/>
<stop offset="1" stop-color="#93C1F9"/>
</linearGradient>
<linearGradient id="paint44_linear" x1="44.2195" y1="76.9131" x2="0.144342" y2="-35.3116" gradientUnits="userSpaceOnUse">
<stop/>
<stop offset="1" stop-color="white"/>
</linearGradient>
<linearGradient id="paint45_linear" x1="44.2195" y1="76.9131" x2="0.144342" y2="-35.3116" gradientUnits="userSpaceOnUse">
<stop stop-color="#97C3F9"/>
<stop offset="1" stop-color="#93C1F9"/>
</linearGradient>
<linearGradient id="paint46_linear" x1="60.395" y1="70.5602" x2="16.3198" y2="-41.6645" gradientUnits="userSpaceOnUse">
<stop/>
<stop offset="1" stop-color="white"/>
</linearGradient>
<linearGradient id="paint47_linear" x1="60.395" y1="70.5602" x2="16.3198" y2="-41.6645" gradientUnits="userSpaceOnUse">
<stop stop-color="#97C3F9"/>
<stop offset="1" stop-color="#93C1F9"/>
</linearGradient>
<linearGradient id="paint48_linear" x1="76.5705" y1="64.2075" x2="32.4953" y2="-48.0173" gradientUnits="userSpaceOnUse">
<stop/>
<stop offset="1" stop-color="white"/>
</linearGradient>
<linearGradient id="paint49_linear" x1="76.5705" y1="64.2075" x2="32.4953" y2="-48.0173" gradientUnits="userSpaceOnUse">
<stop stop-color="#97C3F9"/>
<stop offset="1" stop-color="#93C1F9"/>
</linearGradient>
</defs>
</svg>
