<svg width="791" height="791" viewBox="0 0 791 791" fill="none" xmlns="http://www.w3.org/2000/svg">
<path fill-rule="evenodd" clip-rule="evenodd" d="M450.558 47.5132C432.619 44.6975 414.23 43.2357 395.5 43.2357C200.95 43.2357 43.2357 200.95 43.2357 395.5C43.2357 445.379 53.6026 492.837 72.2994 535.836L73.2199 535.379C54.5913 492.516 44.263 445.214 44.263 395.5C44.263 201.517 201.517 44.263 395.5 44.263C414.192 44.263 432.542 45.723 450.444 48.5352L450.558 47.5132ZM528.609 70.362L528.891 69.3686C654.568 120.826 743.894 242.814 747.644 386.112L746.601 385.651C742.677 243.022 653.72 121.635 528.609 70.362ZM697.867 574.333C636.693 677.543 524.176 746.735 395.5 746.735C322.794 746.735 255.247 724.643 199.206 686.809H197.376C253.826 725.275 322.037 747.762 395.5 747.762C524.654 747.762 637.577 678.257 698.895 574.61L697.867 574.333Z" fill="#F3F3F3" fill-opacity="0.2"/>
<path fill-rule="evenodd" clip-rule="evenodd" d="M332.081 292.194C297.413 313.522 274.298 351.811 274.298 395.5C274.298 445.992 305.173 489.273 349.075 507.492V506.379C305.755 488.22 275.325 445.413 275.325 395.5C275.325 352.174 298.253 314.203 332.638 293.058L332.081 292.194ZM365.76 279.033L365.14 278.132C374.842 275.63 385.015 274.298 395.499 274.298C456.909 274.298 507.651 319.969 515.614 379.198H514.576C506.622 320.538 456.341 275.326 395.499 275.326C385.235 275.326 375.271 276.613 365.76 279.033ZM513.356 419.107C502.561 473.297 455.327 514.35 398.276 515.645L398.398 516.667C455.89 515.316 503.478 473.935 514.361 419.318L513.356 419.107Z" fill="#F3F3F3" fill-opacity="0.2"/>
<path fill-rule="evenodd" clip-rule="evenodd" d="M566.007 369.188C575.185 435.017 545.734 503.1 485.532 540.222C482.917 541.835 480.277 543.371 477.613 544.824L477.859 545.862C480.622 544.357 483.361 542.77 486.071 541.095C546.766 503.669 576.387 434.958 566.962 368.6L566.007 369.188ZM505.931 260.728C450.426 214.143 369.188 205.94 304.131 246.058C272.377 265.639 249.178 293.835 235.691 325.769L234.711 325.45C248.273 293.292 271.622 264.898 303.592 245.183C368.842 204.946 450.275 213.031 506.097 259.528L505.931 260.728ZM225.811 433.94C230.01 451.317 236.982 468.338 246.875 484.38C275.332 530.53 321.873 558.713 371.715 565.431L372.008 564.43C322.402 557.794 276.068 529.765 247.749 483.841C237.98 468 231.077 451.199 226.894 434.044L225.811 433.94Z" fill="#F3F3F3" fill-opacity="0.2"/>
<path fill-rule="evenodd" clip-rule="evenodd" d="M556.941 241.441C614.011 301.331 635.389 390.749 604.535 473.468C586.871 520.832 554.825 558.641 515.198 583.789L515.475 584.826C555.41 559.566 587.708 521.516 605.495 473.827C636.508 390.68 614.992 300.795 557.588 240.628L556.941 241.441ZM501.595 198.042C492.752 193.304 483.487 189.106 473.827 185.503C425.402 167.441 374.692 167.198 328.897 181.485L329.48 182.379C374.992 168.245 425.363 168.523 473.468 186.465C483.028 190.031 492.199 194.183 500.955 198.865L501.595 198.042ZM298.263 194.703L297.707 193.831C247.644 218.099 206.482 260.93 185.503 317.173C178.051 337.155 173.632 357.525 172.015 377.779L172.999 378.371C174.574 358.042 178.985 337.59 186.466 317.532C207.363 261.507 248.381 218.85 298.263 194.703ZM201.303 505.336L200.147 505.377C225.186 549.945 265.525 586.234 317.174 605.495C350.675 617.992 385.27 621.962 418.574 618.49L418.21 617.494C385.138 620.899 350.794 616.939 317.533 604.535C266.299 585.427 226.246 549.488 201.303 505.336Z" fill="#F3F3F3" fill-opacity="0.2"/>
<path fill-rule="evenodd" clip-rule="evenodd" d="M457.958 133.442C437.914 128.682 417.001 126.163 395.501 126.163C262.817 126.163 152.542 222.107 130.268 348.402L131.373 348.054C153.776 222.501 263.508 127.19 395.501 127.19C417.115 127.19 438.132 129.746 458.266 134.572L457.958 133.442ZM628.917 263.09L629.42 261.898C651.953 301.272 664.836 346.882 664.836 395.5C664.836 443.69 652.179 488.924 630.011 528.059L629.328 527.181C651.281 488.281 663.808 443.353 663.808 395.5C663.808 347.348 651.127 302.157 628.917 263.09ZM529.04 628.27C489.717 650.88 444.119 663.808 395.501 663.808C319.208 663.808 250.352 631.968 201.499 580.846H200.08C249.16 632.579 318.563 664.836 395.501 664.836C444.232 664.836 489.941 651.897 529.379 629.261L529.04 628.27Z" fill="#F3F3F3" fill-opacity="0.2"/>
<path fill-rule="evenodd" clip-rule="evenodd" d="M202.61 151.737L201.537 151.277C175.968 171.611 153.665 195.876 135.542 223.158L136.436 223.669C154.595 196.346 176.961 172.06 202.61 151.737ZM100.261 492.997L99.118 492.81C133.422 597.359 221.502 677.527 330.647 700.61V699.562C222.136 676.531 134.549 596.881 100.261 492.997ZM457.285 700.194L457.556 701.191C574.256 677.625 667.342 588.915 697.236 474.641L696.229 474.418C666.423 588.319 573.619 676.736 457.285 700.194ZM704.802 426.605L705.839 426.518C706.846 416.315 707.365 405.968 707.365 395.5C707.365 223.262 567.738 83.6364 395.5 83.6364C393.784 83.6364 392.071 83.6503 390.362 83.6775L391.206 84.6925C392.635 84.673 394.066 84.6637 395.5 84.6637C567.173 84.6637 706.337 223.83 706.337 395.5C706.337 405.998 705.819 416.374 704.802 426.605Z" fill="#F3F3F3" fill-opacity="0.2"/>
<path fill-rule="evenodd" clip-rule="evenodd" d="M623.252 717.622C558.919 763.192 480.337 789.973 395.5 789.973C293.707 789.973 200.919 751.414 130.944 688.113L129.919 688.571C200.115 752.22 293.279 791 395.5 791C480.419 791 559.088 764.234 623.529 718.685L623.252 717.622ZM673.393 675.473L673.845 676.474C746.19 604.802 791 505.383 791 395.5C791 326.143 773.146 260.956 741.788 204.283L740.936 204.867C772.185 261.372 789.973 326.359 789.973 395.5C789.973 504.959 745.389 604.005 673.393 675.473ZM637.757 84.1583C570.902 32.0611 486.825 1.02727 395.5 1.02727C251.461 1.02727 125.453 78.2273 56.596 193.508L55.6633 193.067C124.688 77.4389 251.051 0 395.5 0C486.93 0 571.112 31.0245 638.096 83.1202L637.757 84.1583ZM36.2068 229.958C12.9652 280.318 0 336.395 0 395.5C0 473.035 22.3114 545.359 60.8639 606.404L61.9127 606.137C23.35 545.194 1.02727 472.954 1.02727 395.5C1.02727 336.67 13.9054 280.849 36.9963 230.7L36.2068 229.958Z" fill="#F3F3F3" fill-opacity="0.2"/>
</svg>
